<?xml version="1.0" standalone="no"?>
<!DOCTYPE svg PUBLIC "-//W3C//DTD SVG 20010904//EN"
 "http://www.w3.org/TR/2001/REC-SVG-20010904/DTD/svg10.dtd">
<svg version="1.0" xmlns="http://www.w3.org/2000/svg"
 width="140.000000pt" height="140.000000pt" viewBox="0 0 140.000000 140.000000"
 preserveAspectRatio="xMidYMid meet">
<metadata>
Created by potrace 1.11, written by Peter Selinger 2001-2013
</metadata>
<g transform="translate(0.000000,140.000000) scale(0.100000,-0.100000)"
fill="#000000" stroke="none">
<path d="M0 700 l0 -700 700 0 700 0 0 700 0 700 -700 0 -700 0 0 -700z m815
465 c172 -45 305 -179 350 -352 65 -249 -94 -511 -350 -578 -251 -65 -513 94
-580 350 -89 343 237 669 580 580z"/>
<path d="M635 1140 c-104 -16 -231 -86 -272 -150 -16 -24 -16 -25 3 -8 11 9
46 30 79 45 51 24 72 28 145 28 70 -1 95 -5 142 -27 285 -132 285 -524 0 -656
-47 -22 -72 -26 -142 -27 -73 0 -94 4 -145 28 -33 15 -68 36 -79 45 -19 17
-19 16 -3 -8 24 -38 109 -99 169 -122 273 -104 562 60 608 345 38 238 -130
467 -370 506 -36 6 -69 10 -75 10 -5 -1 -32 -5 -60 -9z"/>
<path d="M464 1010 c-53 -21 -127 -78 -145 -111 -9 -17 -4 -16 32 8 85 56 218
41 292 -33 53 -54 72 -99 72 -174 0 -75 -19 -120 -72 -174 -74 -74 -207 -89
-292 -33 -36 24 -41 25 -32 8 19 -35 93 -90 150 -112 77 -29 195 -24 266 11
61 30 125 94 156 157 20 40 24 63 24 143 0 80 -4 103 -24 143 -31 63 -95 127
-156 157 -69 34 -198 39 -271 10z"/>
<path d="M390 904 c-149 -64 -179 -264 -56 -371 143 -126 377 -11 364 179 -11
151 -171 251 -308 192z"/>
</g>
</svg>
