<?xml version="1.0" encoding="UTF-8"?>
<svg width="280px" height="62px" viewBox="0 0 280 62" version="1.1" xmlns="http://www.w3.org/2000/svg" xmlns:xlink="http://www.w3.org/1999/xlink">
    <!-- Generator: Sketch 52.2 (67145) - http://www.bohemiancoding.com/sketch -->
    <title>logo</title>
    <desc>Created with Sketch.</desc>
    <g id="Landing" stroke="none" stroke-width="1" fill="none" fill-rule="evenodd">
        <g id="Artboard" transform="translate(-100.000000, -50.000000)">
            <g id="logo" transform="translate(100.000000, 50.000000)">
                <path d="M88.6159004,42.3989849 L93.0131348,42.3989849 C95.4273147,42.3989849 96.6343866,41.1488034 96.6343866,38.6484027 L96.6343866,23.9478446 C96.6343866,21.4474439 95.4273147,20.1972624 93.0131348,20.1972624 L88.6159004,20.1972624 C86.2304606,20.1972624 85.0377587,21.4474439 85.0377587,23.9478446 L85.0377587,38.6484027 C85.0377587,41.1488034 86.2304606,42.3989849 88.6159004,42.3989849 Z M93.401126,45.158034 L88.2710192,45.158034 C86.2879428,45.158034 84.7288083,44.5976077 83.593569,43.4767385 C82.4583296,42.3558692 81.8907184,40.7895497 81.8907184,38.7777331 L81.8907184,23.8185142 C81.8907184,21.8066976 82.4583296,20.2403781 83.593569,19.1195088 C84.7288083,17.9986396 86.2879428,17.4382133 88.2710192,17.4382133 L93.401126,17.4382133 C95.3842024,17.4382133 96.9433369,18.0058245 98.0785763,19.1410639 C99.2138157,20.2763033 99.7814269,21.8354378 99.7814269,23.8185142 L99.7814269,38.7777331 C99.7814269,40.7608095 99.2138157,42.319944 98.0785763,43.4551834 C96.9433369,44.5904228 95.3842024,45.158034 93.401126,45.158034 Z M147.202582,17.4382133 L150.694503,17.4382133 C151.096867,17.4382133 151.298045,17.639392 151.298045,18.0417553 L151.298045,44.554492 C151.298045,44.9568553 151.096867,45.158034 150.694503,45.158034 L148.797657,45.158034 C148.395294,45.158034 148.194115,44.9568553 148.194115,44.554492 L148.194115,21.6630071 L148.021675,21.6630071 L141.339603,38.5621824 C141.167161,38.9358055 140.908503,39.1226142 140.56362,39.1226142 L138.494333,39.1226142 C138.12071,39.1226142 137.876422,38.9358055 137.761461,38.5621824 L130.950059,21.619897 L130.777618,21.619897 L130.777618,44.554492 C130.777618,44.9568553 130.590809,45.158034 130.217186,45.158034 L128.32034,45.158034 C127.917977,45.158034 127.716798,44.9568553 127.716798,44.554492 L127.716798,18.0417553 C127.716798,17.639392 127.917977,17.4382133 128.32034,17.4382133 L131.812262,17.4382133 C132.070924,17.4382133 132.243363,17.5531726 132.329583,17.7830945 L139.399646,35.6306928 L139.615197,35.6306928 L146.68526,17.7830945 C146.742741,17.5531726 146.915179,17.4382133 147.202582,17.4382133 Z M185.958598,42.3989849 L190.355833,42.3989849 C192.770013,42.3989849 193.977085,41.1488034 193.977085,38.6484027 L193.977085,23.9478446 C193.977085,21.4474439 192.770013,20.1972624 190.355833,20.1972624 L185.958598,20.1972624 C183.573159,20.1972624 182.380457,21.4474439 182.380457,23.9478446 L182.380457,38.6484027 C182.380457,41.1488034 183.573159,42.3989849 185.958598,42.3989849 Z M190.743824,45.158034 L185.613717,45.158034 C183.630641,45.158034 182.071506,44.5976077 180.936267,43.4767385 C179.801028,42.3558692 179.233416,40.7895497 179.233416,38.7777331 L179.233416,23.8185142 C179.233416,21.8066976 179.801028,20.2403781 180.936267,19.1195088 C182.071506,17.9986396 183.630641,17.4382133 185.613717,17.4382133 L190.743824,17.4382133 C192.726901,17.4382133 194.286035,18.0058245 195.421274,19.1410639 C196.556514,20.2763033 197.124125,21.8354378 197.124125,23.8185142 L197.124125,38.7777331 C197.124125,40.7608095 196.556514,42.319944 195.421274,43.4551834 C194.286035,44.5904228 192.726901,45.158034 190.743824,45.158034 Z M231.827788,45.158034 L229.887832,45.158034 C229.485469,45.158034 229.28429,44.9568553 229.28429,44.554492 L229.28429,20.5852536 C229.28429,20.3265915 229.140591,20.1972624 228.853189,20.1972624 L222.990209,20.1972624 C222.559106,20.1972624 222.343557,19.9960837 222.343557,19.5937204 L222.343557,18.0417553 C222.343557,17.639392 222.559106,17.4382133 222.990209,17.4382133 L238.725411,17.4382133 C239.156514,17.4382133 239.372063,17.639392 239.372063,18.0417553 L239.372063,19.5937204 C239.372063,19.9960837 239.156514,20.1972624 238.725411,20.1972624 L232.862432,20.1972624 C232.575029,20.1972624 232.43133,20.3265915 232.43133,20.5852536 L232.43133,44.554492 C232.43133,44.9568553 232.230152,45.158034 231.827788,45.158034 Z M279.162723,45.158034 L265.626139,45.158034 C265.223775,45.158034 265.022597,44.9568553 265.022597,44.554492 L265.022597,18.0417553 C265.022597,17.639392 265.223775,17.4382133 265.626139,17.4382133 L279.162723,17.4382133 C279.565086,17.4382133 279.766265,17.639392 279.766265,18.0417553 L279.766265,19.5937204 C279.766265,19.9960837 279.565086,20.1972624 279.162723,20.1972624 L268.600739,20.1972624 C268.313336,20.1972624 268.169637,20.3265915 268.169637,20.5852536 L268.169637,29.2935021 C268.169637,29.5521642 268.313336,29.6814934 268.600739,29.6814934 L277.826309,29.6814934 C278.228672,29.6814934 278.429851,29.882672 278.429851,30.2850353 L278.429851,31.8370004 C278.429851,32.2393637 278.228672,32.4405424 277.826309,32.4405424 L268.600739,32.4405424 C268.313336,32.4405424 268.169637,32.5698715 268.169637,32.8285337 L268.169637,42.0109937 C268.169637,42.2696558 268.313336,42.3989849 268.600739,42.3989849 L279.162723,42.3989849 C279.565086,42.3989849 279.766265,42.6001636 279.766265,43.0025269 L279.766265,44.554492 C279.766265,44.9568553 279.565086,45.158034 279.162723,45.158034 Z" id="OMOTE" fill="#F9F9F9"></path>
                <path d="M4.84827672,20.4558523 C7.71721646,17.2493054 11.8878116,15.2311126 16.5299412,15.2311126 C25.1828678,15.2311126 32.1974508,22.2433103 32.1974508,30.8932944 C32.1974508,39.5432786 25.1828678,46.5554763 16.5299412,46.5554763 C11.8878116,46.5554763 7.71721646,44.5372835 4.84827672,41.3307366 C8.52553893,47.9597262 15.5970264,52.4467557 23.7168722,52.4467557 C35.6245693,52.4467557 45.2776651,42.7969424 45.2776651,30.8932944 C45.2776651,18.9896465 35.6245693,9.3398332 23.7168722,9.3398332 C15.5970264,9.3398332 8.52553893,13.8268626 4.84827672,20.4558523 Z M7.0618053,14.8314565 C11.2705846,10.4711737 17.1769183,7.75924604 23.7168722,7.75924604 C36.4978004,7.75924604 46.8587899,18.1167123 46.8587899,30.8932944 C46.8587899,43.6698766 36.4978004,54.0273428 23.7168722,54.0273428 C17.1769183,54.0273428 11.2705846,51.3154151 7.0618053,46.9551324 C12.227471,54.6027462 20.9782032,59.6312427 30.9038032,59.6312427 C46.7807327,59.6312427 59.6515271,46.764825 59.6515271,30.8932944 C59.6515271,15.0217638 46.7807327,2.15534612 30.9038032,2.15534612 C20.9782032,2.15534612 12.227471,7.18384262 7.0618053,14.8314565 Z M30.9038032,61.7865889 C13.836104,61.7865889 1.27897692e-13,47.9551898 1.27897692e-13,30.8932944 C1.27897692e-13,13.831399 13.836104,7.81597009e-14 30.9038032,7.81597009e-14 C47.9715024,7.81597009e-14 61.8076064,13.831399 61.8076064,30.8932944 C61.8076064,47.9551898 47.9715024,61.7865889 30.9038032,61.7865889 Z M16.5299412,45.2622686 C24.468406,45.2622686 30.9038032,38.8290597 30.9038032,30.8932944 C30.9038032,22.9575291 24.468406,16.5243203 16.5299412,16.5243203 C8.59147649,16.5243203 2.15607929,22.9575291 2.15607929,30.8932944 C2.15607929,38.8290597 8.59147649,45.2622686 16.5299412,45.2622686 Z" id="Combined-Shape" fill="#EEEEEE"></path>
            </g>
        </g>
    </g>
</svg>